<svg id="Layer_1" data-name="Layer 1" xmlns="http://www.w3.org/2000/svg" xmlns:xlink="http://www.w3.org/1999/xlink" viewBox="0 0 200 200"><defs><style>.cls-1{fill:none;}.cls-2{clip-path:url(#clip-path);}.cls-3{fill:#dcdbdb;}</style><clipPath id="clip-path"><rect class="cls-1" x="-0.02" y="-0.02" width="200.04" height="200.04"/></clipPath></defs><g class="cls-2"><path class="cls-3" d="M9.88.08v9.8H.08V.08h9.8M10,0H0V10H10V0Z"/><path class="cls-3" d="M19.88.08v9.8h-9.8V.08h9.8M20,0H10V10H20V0Z"/><path class="cls-3" d="M29.88.08v9.8h-9.8V.08h9.8M30,0H20V10H30V0Z"/><path class="cls-3" d="M39.88.08v9.8h-9.8V.08h9.8M40,0H30V10H40V0Z"/><path class="cls-3" d="M49.88.08v9.8h-9.8V.08h9.8M50,0H40V10H50V0Z"/><path class="cls-3" d="M59.88.08v9.8h-9.8V.08h9.8M60,0H50V10H60V0Z"/><path class="cls-3" d="M69.88.08v9.8h-9.8V.08h9.8M70,0H60V10H70V0Z"/><path class="cls-3" d="M79.88.08v9.8h-9.8V.08h9.8M80,0H70V10H80V0Z"/><path class="cls-3" d="M89.88.08v9.8h-9.8V.08h9.8M90,0H80V10H90V0Z"/><path class="cls-3" d="M99.88.08v9.8h-9.8V.08h9.8M100,0H90V10h10V0Z"/><path class="cls-3" d="M109.88.08v9.8h-9.8V.08h9.8M110,0H100V10h10V0Z"/><path class="cls-3" d="M119.88.08v9.8h-9.8V.08h9.8M120,0H110V10h10V0Z"/><path class="cls-3" d="M129.88.08v9.8h-9.8V.08h9.8M130,0H120V10h10V0Z"/><path class="cls-3" d="M139.88.08v9.8h-9.8V.08h9.8M140,0H130V10h10V0Z"/><path class="cls-3" d="M149.88.08v9.8h-9.8V.08h9.8M150,0H140V10h10V0Z"/><path class="cls-3" d="M159.88.08v9.8h-9.8V.08h9.8M160,0H150V10h10V0Z"/><path class="cls-3" d="M169.88.08v9.8h-9.8V.08h9.8M170,0H160V10h10V0Z"/><path class="cls-3" d="M179.88.08v9.8h-9.8V.08h9.8M180,0H170V10h10V0Z"/><path class="cls-3" d="M189.88.08v9.8h-9.8V.08h9.8M190,0H180V10h10V0Z"/><path class="cls-3" d="M199.88.08v9.8h-9.8V.08h9.8M200,0H190V10h10V0Z"/><path class="cls-3" d="M209.88.08v9.8h-9.8V.08h9.8M210,0H200V10h10V0Z"/><path class="cls-3" d="M9.88,10.08v9.8H.08v-9.8h9.8M10,10H0V20H10V10Z"/><path class="cls-3" d="M19.88,10.08v9.8h-9.8v-9.8h9.8M20,10H10V20H20V10Z"/><path class="cls-3" d="M29.88,10.08v9.8h-9.8v-9.8h9.8M30,10H20V20H30V10Z"/><path class="cls-3" d="M39.88,10.08v9.8h-9.8v-9.8h9.8M40,10H30V20H40V10Z"/><path class="cls-3" d="M49.88,10.08v9.8h-9.8v-9.8h9.8M50,10H40V20H50V10Z"/><path class="cls-3" d="M59.88,10.08v9.8h-9.8v-9.8h9.8M60,10H50V20H60V10Z"/><path class="cls-3" d="M69.88,10.08v9.8h-9.8v-9.8h9.8M70,10H60V20H70V10Z"/><path class="cls-3" d="M79.88,10.08v9.8h-9.8v-9.8h9.8M80,10H70V20H80V10Z"/><path class="cls-3" d="M89.88,10.08v9.8h-9.8v-9.8h9.8M90,10H80V20H90V10Z"/><path class="cls-3" d="M99.88,10.08v9.8h-9.8v-9.8h9.8m.1-.1H90V20h10V10Z"/><path class="cls-3" d="M109.88,10.08v9.8h-9.8v-9.8h9.8m.1-.1H100V20h10V10Z"/><path class="cls-3" d="M119.88,10.08v9.8h-9.8v-9.8h9.8m.1-.1H110V20h10V10Z"/><path class="cls-3" d="M129.88,10.08v9.8h-9.8v-9.8h9.8m.1-.1H120V20h10V10Z"/><path class="cls-3" d="M139.88,10.08v9.8h-9.8v-9.8h9.8m.1-.1H130V20h10V10Z"/><path class="cls-3" d="M149.88,10.08v9.8h-9.8v-9.8h9.8m.1-.1H140V20h10V10Z"/><path class="cls-3" d="M159.88,10.08v9.8h-9.8v-9.8h9.8m.1-.1H150V20h10V10Z"/><path class="cls-3" d="M169.88,10.08v9.8h-9.8v-9.8h9.8m.1-.1H160V20h10V10Z"/><path class="cls-3" d="M179.88,10.08v9.8h-9.8v-9.8h9.8m.1-.1H170V20h10V10Z"/><path class="cls-3" d="M189.88,10.08v9.8h-9.8v-9.8h9.8m.1-.1H180V20h10V10Z"/><path class="cls-3" d="M199.88,10.08v9.8h-9.8v-9.8h9.8m.1-.1H190V20h10V10Z"/><path class="cls-3" d="M209.88,10.08v9.8h-9.8v-9.8h9.8m.1-.1H200V20h10V10Z"/><path class="cls-3" d="M9.88,20.08v9.8H.08v-9.8h9.8M10,20H0V30H10V20Z"/><path class="cls-3" d="M19.88,20.08v9.8h-9.8v-9.8h9.8M20,20H10V30H20V20Z"/><path class="cls-3" d="M29.88,20.08v9.8h-9.8v-9.8h9.8M30,20H20V30H30V20Z"/><path class="cls-3" d="M39.88,20.08v9.8h-9.8v-9.8h9.8M40,20H30V30H40V20Z"/><path class="cls-3" d="M49.88,20.08v9.8h-9.8v-9.8h9.8M50,20H40V30H50V20Z"/><path class="cls-3" d="M59.88,20.08v9.8h-9.8v-9.8h9.8M60,20H50V30H60V20Z"/><path class="cls-3" d="M69.88,20.08v9.8h-9.8v-9.8h9.8M70,20H60V30H70V20Z"/><path class="cls-3" d="M79.88,20.08v9.8h-9.8v-9.8h9.8M80,20H70V30H80V20Z"/><path class="cls-3" d="M89.88,20.08v9.8h-9.8v-9.8h9.8M90,20H80V30H90V20Z"/><path class="cls-3" d="M99.88,20.08v9.8h-9.8v-9.8h9.8m.1-.1H90V30h10V20Z"/><path class="cls-3" d="M109.88,20.08v9.8h-9.8v-9.8h9.8m.1-.1H100V30h10V20Z"/><path class="cls-3" d="M119.88,20.08v9.8h-9.8v-9.8h9.8m.1-.1H110V30h10V20Z"/><path class="cls-3" d="M129.88,20.08v9.8h-9.8v-9.8h9.8m.1-.1H120V30h10V20Z"/><path class="cls-3" d="M139.88,20.08v9.8h-9.8v-9.8h9.8m.1-.1H130V30h10V20Z"/><path class="cls-3" d="M149.88,20.08v9.8h-9.8v-9.8h9.8m.1-.1H140V30h10V20Z"/><path class="cls-3" d="M159.88,20.08v9.8h-9.8v-9.8h9.8m.1-.1H150V30h10V20Z"/><path class="cls-3" d="M169.88,20.08v9.8h-9.8v-9.8h9.8m.1-.1H160V30h10V20Z"/><path class="cls-3" d="M179.88,20.08v9.8h-9.8v-9.8h9.8m.1-.1H170V30h10V20Z"/><path class="cls-3" d="M189.88,20.08v9.8h-9.8v-9.8h9.8m.1-.1H180V30h10V20Z"/><path class="cls-3" d="M199.88,20.08v9.8h-9.8v-9.8h9.8m.1-.1H190V30h10V20Z"/><path class="cls-3" d="M209.88,20.08v9.8h-9.8v-9.8h9.8m.1-.1H200V30h10V20Z"/><path class="cls-3" d="M9.88,30.08v9.8H.08v-9.8h9.8M10,30H0V40H10V30Z"/><path class="cls-3" d="M19.88,30.08v9.8h-9.8v-9.8h9.8M20,30H10V40H20V30Z"/><path class="cls-3" d="M29.88,30.08v9.8h-9.8v-9.8h9.8M30,30H20V40H30V30Z"/><path class="cls-3" d="M39.88,30.08v9.8h-9.8v-9.8h9.8M40,30H30V40H40V30Z"/><path class="cls-3" d="M49.88,30.08v9.8h-9.8v-9.8h9.8M50,30H40V40H50V30Z"/><path class="cls-3" d="M59.88,30.08v9.8h-9.8v-9.8h9.8M60,30H50V40H60V30Z"/><path class="cls-3" d="M69.88,30.08v9.8h-9.8v-9.8h9.8M70,30H60V40H70V30Z"/><path class="cls-3" d="M79.88,30.08v9.8h-9.8v-9.8h9.8M80,30H70V40H80V30Z"/><path class="cls-3" d="M89.88,30.08v9.8h-9.8v-9.8h9.8M90,30H80V40H90V30Z"/><path class="cls-3" d="M99.88,30.08v9.8h-9.8v-9.8h9.8m.1-.1H90V40h10V30Z"/><path class="cls-3" d="M109.88,30.08v9.8h-9.8v-9.8h9.8m.1-.1H100V40h10V30Z"/><path class="cls-3" d="M119.88,30.08v9.8h-9.8v-9.8h9.8m.1-.1H110V40h10V30Z"/><path class="cls-3" d="M129.88,30.08v9.8h-9.8v-9.8h9.8m.1-.1H120V40h10V30Z"/><path class="cls-3" d="M139.88,30.08v9.8h-9.8v-9.8h9.8m.1-.1H130V40h10V30Z"/><path class="cls-3" d="M149.88,30.08v9.8h-9.8v-9.8h9.8m.1-.1H140V40h10V30Z"/><path class="cls-3" d="M159.88,30.08v9.8h-9.8v-9.8h9.8m.1-.1H150V40h10V30Z"/><path class="cls-3" d="M169.88,30.08v9.8h-9.8v-9.8h9.8m.1-.1H160V40h10V30Z"/><path class="cls-3" d="M179.88,30.08v9.8h-9.8v-9.8h9.8m.1-.1H170V40h10V30Z"/><path class="cls-3" d="M189.88,30.08v9.8h-9.8v-9.8h9.8m.1-.1H180V40h10V30Z"/><path class="cls-3" d="M199.88,30.08v9.8h-9.8v-9.8h9.8m.1-.1H190V40h10V30Z"/><path class="cls-3" d="M209.88,30.08v9.8h-9.8v-9.8h9.8m.1-.1H200V40h10V30Z"/><path class="cls-3" d="M9.88,40.08v9.8H.08v-9.8h9.8M10,40H0V50H10V40Z"/><path class="cls-3" d="M19.88,40.08v9.8h-9.8v-9.8h9.8M20,40H10V50H20V40Z"/><path class="cls-3" d="M29.88,40.08v9.8h-9.8v-9.8h9.8M30,40H20V50H30V40Z"/><path class="cls-3" d="M39.88,40.08v9.8h-9.8v-9.8h9.8M40,40H30V50H40V40Z"/><path class="cls-3" d="M49.88,40.08v9.8h-9.8v-9.8h9.8M50,40H40V50H50V40Z"/><path class="cls-3" d="M59.88,40.08v9.8h-9.8v-9.8h9.8M60,40H50V50H60V40Z"/><path class="cls-3" d="M69.88,40.08v9.8h-9.8v-9.8h9.8M70,40H60V50H70V40Z"/><path class="cls-3" d="M79.88,40.08v9.8h-9.8v-9.8h9.8M80,40H70V50H80V40Z"/><path class="cls-3" d="M89.88,40.08v9.8h-9.8v-9.8h9.8M90,40H80V50H90V40Z"/><path class="cls-3" d="M99.88,40.08v9.8h-9.8v-9.8h9.8m.1-.1H90V50h10V40Z"/><path class="cls-3" d="M109.88,40.08v9.8h-9.8v-9.8h9.8m.1-.1H100V50h10V40Z"/><path class="cls-3" d="M119.88,40.08v9.8h-9.8v-9.8h9.8m.1-.1H110V50h10V40Z"/><path class="cls-3" d="M129.88,40.08v9.8h-9.8v-9.8h9.8m.1-.1H120V50h10V40Z"/><path class="cls-3" d="M139.88,40.08v9.8h-9.8v-9.8h9.8m.1-.1H130V50h10V40Z"/><path class="cls-3" d="M149.88,40.08v9.8h-9.8v-9.8h9.8m.1-.1H140V50h10V40Z"/><path class="cls-3" d="M159.88,40.08v9.8h-9.8v-9.8h9.8m.1-.1H150V50h10V40Z"/><path class="cls-3" d="M169.88,40.08v9.8h-9.8v-9.8h9.8m.1-.1H160V50h10V40Z"/><path class="cls-3" d="M179.88,40.08v9.8h-9.8v-9.8h9.8m.1-.1H170V50h10V40Z"/><path class="cls-3" d="M189.88,40.08v9.8h-9.8v-9.8h9.8m.1-.1H180V50h10V40Z"/><path class="cls-3" d="M199.88,40.08v9.8h-9.8v-9.8h9.8m.1-.1H190V50h10V40Z"/><path class="cls-3" d="M209.88,40.08v9.8h-9.8v-9.8h9.8m.1-.1H200V50h10V40Z"/><path class="cls-3" d="M9.88,50.08v9.8H.08v-9.8h9.8M10,50H0V60H10V50Z"/><path class="cls-3" d="M19.88,50.08v9.8h-9.8v-9.8h9.8M20,50H10V60H20V50Z"/><path class="cls-3" d="M29.88,50.08v9.8h-9.8v-9.8h9.8M30,50H20V60H30V50Z"/><path class="cls-3" d="M39.88,50.08v9.8h-9.8v-9.8h9.8M40,50H30V60H40V50Z"/><path class="cls-3" d="M49.88,50.08v9.8h-9.8v-9.8h9.8M50,50H40V60H50V50Z"/><path class="cls-3" d="M59.88,50.08v9.8h-9.8v-9.8h9.8M60,50H50V60H60V50Z"/><path class="cls-3" d="M69.88,50.08v9.8h-9.8v-9.8h9.8M70,50H60V60H70V50Z"/><path class="cls-3" d="M79.88,50.08v9.8h-9.8v-9.8h9.8M80,50H70V60H80V50Z"/><path class="cls-3" d="M89.88,50.08v9.8h-9.8v-9.8h9.8M90,50H80V60H90V50Z"/><path class="cls-3" d="M99.88,50.08v9.8h-9.8v-9.8h9.8m.1-.1H90V60h10V50Z"/><path class="cls-3" d="M109.88,50.08v9.8h-9.8v-9.8h9.8m.1-.1H100V60h10V50Z"/><path class="cls-3" d="M119.88,50.08v9.8h-9.8v-9.8h9.8m.1-.1H110V60h10V50Z"/><path class="cls-3" d="M129.88,50.08v9.8h-9.8v-9.8h9.8m.1-.1H120V60h10V50Z"/><path class="cls-3" d="M139.88,50.08v9.8h-9.8v-9.8h9.8m.1-.1H130V60h10V50Z"/><path class="cls-3" d="M149.88,50.08v9.8h-9.8v-9.8h9.8m.1-.1H140V60h10V50Z"/><path class="cls-3" d="M159.88,50.08v9.8h-9.8v-9.8h9.8m.1-.1H150V60h10V50Z"/><path class="cls-3" d="M169.88,50.08v9.8h-9.8v-9.8h9.8m.1-.1H160V60h10V50Z"/><path class="cls-3" d="M179.88,50.08v9.8h-9.8v-9.8h9.8m.1-.1H170V60h10V50Z"/><path class="cls-3" d="M189.88,50.08v9.8h-9.8v-9.8h9.8m.1-.1H180V60h10V50Z"/><path class="cls-3" d="M199.88,50.08v9.8h-9.8v-9.8h9.8m.1-.1H190V60h10V50Z"/><path class="cls-3" d="M209.88,50.08v9.8h-9.8v-9.8h9.8m.1-.1H200V60h10V50Z"/><path class="cls-3" d="M9.88,60.08v9.8H.08v-9.8h9.8M10,60H0V70H10V60Z"/><path class="cls-3" d="M19.88,60.08v9.8h-9.8v-9.8h9.8M20,60H10V70H20V60Z"/><path class="cls-3" d="M29.88,60.08v9.8h-9.8v-9.8h9.8M30,60H20V70H30V60Z"/><path class="cls-3" d="M39.88,60.08v9.8h-9.8v-9.8h9.8M40,60H30V70H40V60Z"/><path class="cls-3" d="M49.88,60.08v9.8h-9.8v-9.8h9.8M50,60H40V70H50V60Z"/><path class="cls-3" d="M59.88,60.08v9.8h-9.8v-9.8h9.8M60,60H50V70H60V60Z"/><path class="cls-3" d="M69.88,60.08v9.8h-9.8v-9.8h9.8M70,60H60V70H70V60Z"/><path class="cls-3" d="M79.88,60.08v9.8h-9.8v-9.8h9.8M80,60H70V70H80V60Z"/><path class="cls-3" d="M89.88,60.08v9.8h-9.8v-9.8h9.8M90,60H80V70H90V60Z"/><path class="cls-3" d="M99.88,60.08v9.8h-9.8v-9.8h9.8m.1-.1H90V70h10V60Z"/><path class="cls-3" d="M109.88,60.08v9.8h-9.8v-9.8h9.8m.1-.1H100V70h10V60Z"/><path class="cls-3" d="M119.88,60.08v9.8h-9.8v-9.8h9.8m.1-.1H110V70h10V60Z"/><path class="cls-3" d="M129.88,60.08v9.8h-9.8v-9.8h9.8m.1-.1H120V70h10V60Z"/><path class="cls-3" d="M139.88,60.08v9.8h-9.8v-9.8h9.8m.1-.1H130V70h10V60Z"/><path class="cls-3" d="M149.88,60.08v9.8h-9.8v-9.8h9.8m.1-.1H140V70h10V60Z"/><path class="cls-3" d="M159.88,60.08v9.8h-9.8v-9.8h9.8m.1-.1H150V70h10V60Z"/><path class="cls-3" d="M169.88,60.08v9.8h-9.8v-9.8h9.8m.1-.1H160V70h10V60Z"/><path class="cls-3" d="M179.88,60.08v9.8h-9.8v-9.8h9.8m.1-.1H170V70h10V60Z"/><path class="cls-3" d="M189.88,60.08v9.8h-9.8v-9.8h9.8m.1-.1H180V70h10V60Z"/><path class="cls-3" d="M199.88,60.08v9.8h-9.8v-9.8h9.8m.1-.1H190V70h10V60Z"/><path class="cls-3" d="M209.88,60.08v9.8h-9.8v-9.8h9.8m.1-.1H200V70h10V60Z"/><path class="cls-3" d="M9.88,70.08v9.8H.08v-9.8h9.8M10,70H0V80H10V70Z"/><path class="cls-3" d="M19.88,70.08v9.8h-9.8v-9.8h9.8M20,70H10V80H20V70Z"/><path class="cls-3" d="M29.88,70.08v9.8h-9.8v-9.8h9.8M30,70H20V80H30V70Z"/><path class="cls-3" d="M39.88,70.08v9.8h-9.8v-9.8h9.8M40,70H30V80H40V70Z"/><path class="cls-3" d="M49.88,70.08v9.8h-9.8v-9.8h9.8M50,70H40V80H50V70Z"/><path class="cls-3" d="M59.88,70.08v9.8h-9.8v-9.8h9.8M60,70H50V80H60V70Z"/><path class="cls-3" d="M69.88,70.08v9.8h-9.8v-9.8h9.8M70,70H60V80H70V70Z"/><path class="cls-3" d="M79.88,70.08v9.8h-9.8v-9.8h9.8M80,70H70V80H80V70Z"/><path class="cls-3" d="M89.88,70.08v9.8h-9.8v-9.8h9.8M90,70H80V80H90V70Z"/><path class="cls-3" d="M99.88,70.08v9.8h-9.8v-9.8h9.8m.1-.1H90V80h10V70Z"/><path class="cls-3" d="M109.88,70.08v9.8h-9.8v-9.8h9.8m.1-.1H100V80h10V70Z"/><path class="cls-3" d="M119.88,70.08v9.8h-9.8v-9.8h9.8m.1-.1H110V80h10V70Z"/><path class="cls-3" d="M129.88,70.08v9.8h-9.8v-9.8h9.8m.1-.1H120V80h10V70Z"/><path class="cls-3" d="M139.88,70.08v9.8h-9.8v-9.8h9.8m.1-.1H130V80h10V70Z"/><path class="cls-3" d="M149.88,70.08v9.8h-9.8v-9.8h9.8m.1-.1H140V80h10V70Z"/><path class="cls-3" d="M159.88,70.08v9.8h-9.8v-9.8h9.8m.1-.1H150V80h10V70Z"/><path class="cls-3" d="M169.88,70.08v9.8h-9.8v-9.8h9.8m.1-.1H160V80h10V70Z"/><path class="cls-3" d="M179.88,70.08v9.8h-9.8v-9.8h9.8m.1-.1H170V80h10V70Z"/><path class="cls-3" d="M189.88,70.08v9.8h-9.8v-9.8h9.8m.1-.1H180V80h10V70Z"/><path class="cls-3" d="M199.88,70.08v9.8h-9.8v-9.8h9.8m.1-.1H190V80h10V70Z"/><path class="cls-3" d="M209.88,70.08v9.8h-9.8v-9.8h9.8m.1-.1H200V80h10V70Z"/><path class="cls-3" d="M9.88,80.08v9.8H.08v-9.8h9.8M10,80H0V90H10V80Z"/><path class="cls-3" d="M19.88,80.08v9.8h-9.8v-9.8h9.8M20,80H10V90H20V80Z"/><path class="cls-3" d="M29.88,80.08v9.8h-9.8v-9.8h9.8M30,80H20V90H30V80Z"/><path class="cls-3" d="M39.88,80.08v9.8h-9.8v-9.8h9.8M40,80H30V90H40V80Z"/><path class="cls-3" d="M49.88,80.08v9.8h-9.8v-9.8h9.8M50,80H40V90H50V80Z"/><path class="cls-3" d="M59.88,80.08v9.8h-9.8v-9.8h9.8M60,80H50V90H60V80Z"/><path class="cls-3" d="M69.88,80.08v9.8h-9.8v-9.8h9.8M70,80H60V90H70V80Z"/><path class="cls-3" d="M79.88,80.08v9.8h-9.8v-9.8h9.8M80,80H70V90H80V80Z"/><path class="cls-3" d="M89.88,80.08v9.8h-9.8v-9.8h9.8M90,80H80V90H90V80Z"/><path class="cls-3" d="M99.88,80.08v9.8h-9.8v-9.8h9.8m.1-.1H90V90h10V80Z"/><path class="cls-3" d="M109.88,80.08v9.8h-9.8v-9.8h9.8m.1-.1H100V90h10V80Z"/><path class="cls-3" d="M119.88,80.08v9.8h-9.8v-9.8h9.8m.1-.1H110V90h10V80Z"/><path class="cls-3" d="M129.88,80.08v9.8h-9.8v-9.8h9.8m.1-.1H120V90h10V80Z"/><path class="cls-3" d="M139.88,80.08v9.8h-9.8v-9.8h9.8m.1-.1H130V90h10V80Z"/><path class="cls-3" d="M149.88,80.08v9.8h-9.8v-9.8h9.8m.1-.1H140V90h10V80Z"/><path class="cls-3" d="M159.88,80.08v9.8h-9.8v-9.8h9.8m.1-.1H150V90h10V80Z"/><path class="cls-3" d="M169.88,80.08v9.8h-9.8v-9.8h9.8m.1-.1H160V90h10V80Z"/><path class="cls-3" d="M179.88,80.08v9.8h-9.8v-9.8h9.8m.1-.1H170V90h10V80Z"/><path class="cls-3" d="M189.88,80.08v9.8h-9.8v-9.8h9.8m.1-.1H180V90h10V80Z"/><path class="cls-3" d="M199.88,80.08v9.8h-9.8v-9.8h9.8m.1-.1H190V90h10V80Z"/><path class="cls-3" d="M209.88,80.08v9.8h-9.8v-9.8h9.8m.1-.1H200V90h10V80Z"/><path class="cls-3" d="M9.88,90.08v9.8H.08v-9.8h9.8M10,90H0v10H10V90Z"/><path class="cls-3" d="M19.88,90.08v9.8h-9.8v-9.8h9.8M20,90H10v10H20V90Z"/><path class="cls-3" d="M29.88,90.08v9.8h-9.8v-9.8h9.8M30,90H20v10H30V90Z"/><path class="cls-3" d="M39.88,90.08v9.8h-9.8v-9.8h9.8M40,90H30v10H40V90Z"/><path class="cls-3" d="M49.88,90.08v9.8h-9.8v-9.8h9.8M50,90H40v10H50V90Z"/><path class="cls-3" d="M59.88,90.08v9.8h-9.8v-9.8h9.8M60,90H50v10H60V90Z"/><path class="cls-3" d="M69.88,90.08v9.8h-9.8v-9.8h9.8M70,90H60v10H70V90Z"/><path class="cls-3" d="M79.88,90.08v9.8h-9.8v-9.8h9.8M80,90H70v10H80V90Z"/><path class="cls-3" d="M89.88,90.08v9.8h-9.8v-9.8h9.8M90,90H80v10H90V90Z"/><path class="cls-3" d="M99.88,90.08v9.8h-9.8v-9.8h9.8m.1-.1H90v10h10V90Z"/><path class="cls-3" d="M109.88,90.08v9.8h-9.8v-9.8h9.8m.1-.1H100v10h10V90Z"/><path class="cls-3" d="M119.88,90.08v9.8h-9.8v-9.8h9.8m.1-.1H110v10h10V90Z"/><path class="cls-3" d="M129.88,90.08v9.8h-9.8v-9.8h9.8m.1-.1H120v10h10V90Z"/><path class="cls-3" d="M139.88,90.08v9.8h-9.8v-9.8h9.8m.1-.1H130v10h10V90Z"/><path class="cls-3" d="M149.88,90.08v9.8h-9.8v-9.8h9.8m.1-.1H140v10h10V90Z"/><path class="cls-3" d="M159.88,90.08v9.8h-9.8v-9.8h9.8m.1-.1H150v10h10V90Z"/><path class="cls-3" d="M169.88,90.08v9.8h-9.8v-9.8h9.8m.1-.1H160v10h10V90Z"/><path class="cls-3" d="M179.88,90.08v9.8h-9.8v-9.8h9.8m.1-.1H170v10h10V90Z"/><path class="cls-3" d="M189.88,90.08v9.8h-9.8v-9.8h9.8m.1-.1H180v10h10V90Z"/><path class="cls-3" d="M199.88,90.08v9.8h-9.8v-9.8h9.8m.1-.1H190v10h10V90Z"/><path class="cls-3" d="M209.88,90.08v9.8h-9.8v-9.8h9.8m.1-.1H200v10h10V90Z"/><path class="cls-3" d="M9.88,100.08v9.8H.08v-9.8h9.8m.1-.1H0v10H10V100Z"/><path class="cls-3" d="M19.88,100.08v9.8h-9.8v-9.8h9.8m.1-.1H10v10H20V100Z"/><path class="cls-3" d="M29.88,100.08v9.8h-9.8v-9.8h9.8m.1-.1H20v10H30V100Z"/><path class="cls-3" d="M39.88,100.08v9.8h-9.8v-9.8h9.8m.1-.1H30v10H40V100Z"/><path class="cls-3" d="M49.88,100.08v9.8h-9.8v-9.8h9.8m.1-.1H40v10H50V100Z"/><path class="cls-3" d="M59.88,100.08v9.8h-9.8v-9.8h9.8m.1-.1H50v10H60V100Z"/><path class="cls-3" d="M69.88,100.08v9.8h-9.8v-9.8h9.8m.1-.1H60v10H70V100Z"/><path class="cls-3" d="M79.88,100.08v9.8h-9.8v-9.8h9.8m.1-.1H70v10H80V100Z"/><path class="cls-3" d="M89.88,100.08v9.8h-9.8v-9.8h9.8m.1-.1H80v10H90V100Z"/><path class="cls-3" d="M99.88,100.08v9.8h-9.8v-9.8h9.8m.1-.1H90v10h10V100Z"/><path class="cls-3" d="M109.88,100.08v9.8h-9.8v-9.8h9.8m.1-.1H100v10h10V100Z"/><path class="cls-3" d="M119.88,100.08v9.8h-9.8v-9.8h9.8m.1-.1H110v10h10V100Z"/><path class="cls-3" d="M129.88,100.08v9.8h-9.8v-9.8h9.8m.1-.1H120v10h10V100Z"/><path class="cls-3" d="M139.88,100.08v9.8h-9.8v-9.8h9.8m.1-.1H130v10h10V100Z"/><path class="cls-3" d="M149.88,100.08v9.8h-9.8v-9.8h9.8m.1-.1H140v10h10V100Z"/><path class="cls-3" d="M159.88,100.08v9.8h-9.8v-9.8h9.8m.1-.1H150v10h10V100Z"/><path class="cls-3" d="M169.88,100.08v9.8h-9.8v-9.8h9.8m.1-.1H160v10h10V100Z"/><path class="cls-3" d="M179.88,100.08v9.8h-9.8v-9.8h9.8m.1-.1H170v10h10V100Z"/><path class="cls-3" d="M189.88,100.08v9.8h-9.8v-9.8h9.8m.1-.1H180v10h10V100Z"/><path class="cls-3" d="M199.88,100.08v9.8h-9.8v-9.8h9.8m.1-.1H190v10h10V100Z"/><path class="cls-3" d="M209.88,100.08v9.8h-9.8v-9.8h9.8m.1-.1H200v10h10V100Z"/><path class="cls-3" d="M9.88,110.08v9.8H.08v-9.8h9.8m.1-.1H0v10H10V110Z"/><path class="cls-3" d="M19.88,110.08v9.8h-9.8v-9.8h9.8m.1-.1H10v10H20V110Z"/><path class="cls-3" d="M29.88,110.08v9.8h-9.8v-9.8h9.8m.1-.1H20v10H30V110Z"/><path class="cls-3" d="M39.88,110.08v9.8h-9.8v-9.8h9.8m.1-.1H30v10H40V110Z"/><path class="cls-3" d="M49.88,110.08v9.8h-9.8v-9.8h9.8m.1-.1H40v10H50V110Z"/><path class="cls-3" d="M59.88,110.08v9.8h-9.8v-9.8h9.8m.1-.1H50v10H60V110Z"/><path class="cls-3" d="M69.88,110.08v9.8h-9.8v-9.8h9.8m.1-.1H60v10H70V110Z"/><path class="cls-3" d="M79.88,110.08v9.8h-9.8v-9.8h9.8m.1-.1H70v10H80V110Z"/><path class="cls-3" d="M89.88,110.08v9.8h-9.8v-9.8h9.8m.1-.1H80v10H90V110Z"/><path class="cls-3" d="M99.88,110.08v9.8h-9.8v-9.8h9.8m.1-.1H90v10h10V110Z"/><path class="cls-3" d="M109.88,110.08v9.8h-9.8v-9.8h9.8m.1-.1H100v10h10V110Z"/><path class="cls-3" d="M119.88,110.08v9.8h-9.8v-9.8h9.8m.1-.1H110v10h10V110Z"/><path class="cls-3" d="M129.88,110.08v9.8h-9.8v-9.8h9.8m.1-.1H120v10h10V110Z"/><path class="cls-3" d="M139.88,110.08v9.8h-9.8v-9.8h9.8m.1-.1H130v10h10V110Z"/><path class="cls-3" d="M149.88,110.08v9.8h-9.8v-9.8h9.8m.1-.1H140v10h10V110Z"/><path class="cls-3" d="M159.88,110.08v9.8h-9.8v-9.8h9.8m.1-.1H150v10h10V110Z"/><path class="cls-3" d="M169.88,110.08v9.8h-9.8v-9.8h9.8m.1-.1H160v10h10V110Z"/><path class="cls-3" d="M179.88,110.08v9.8h-9.8v-9.8h9.8m.1-.1H170v10h10V110Z"/><path class="cls-3" d="M189.88,110.08v9.8h-9.8v-9.8h9.8m.1-.1H180v10h10V110Z"/><path class="cls-3" d="M199.88,110.08v9.8h-9.8v-9.8h9.8m.1-.1H190v10h10V110Z"/><path class="cls-3" d="M209.88,110.08v9.8h-9.8v-9.8h9.8m.1-.1H200v10h10V110Z"/><path class="cls-3" d="M9.88,120.08v9.8H.08v-9.8h9.8m.1-.1H0v10H10V120Z"/><path class="cls-3" d="M19.88,120.08v9.8h-9.8v-9.8h9.8m.1-.1H10v10H20V120Z"/><path class="cls-3" d="M29.88,120.08v9.8h-9.8v-9.8h9.8m.1-.1H20v10H30V120Z"/><path class="cls-3" d="M39.88,120.08v9.8h-9.8v-9.8h9.8m.1-.1H30v10H40V120Z"/><path class="cls-3" d="M49.88,120.08v9.8h-9.8v-9.8h9.8m.1-.1H40v10H50V120Z"/><path class="cls-3" d="M59.88,120.08v9.8h-9.8v-9.8h9.8m.1-.1H50v10H60V120Z"/><path class="cls-3" d="M69.88,120.08v9.8h-9.8v-9.8h9.8m.1-.1H60v10H70V120Z"/><path class="cls-3" d="M79.88,120.08v9.8h-9.8v-9.8h9.8m.1-.1H70v10H80V120Z"/><path class="cls-3" d="M89.88,120.08v9.8h-9.8v-9.8h9.8m.1-.1H80v10H90V120Z"/><path class="cls-3" d="M99.88,120.08v9.8h-9.8v-9.8h9.8m.1-.1H90v10h10V120Z"/><path class="cls-3" d="M109.88,120.08v9.8h-9.8v-9.8h9.8m.1-.1H100v10h10V120Z"/><path class="cls-3" d="M119.88,120.08v9.8h-9.8v-9.8h9.8m.1-.1H110v10h10V120Z"/><path class="cls-3" d="M129.88,120.08v9.8h-9.8v-9.8h9.8m.1-.1H120v10h10V120Z"/><path class="cls-3" d="M139.88,120.08v9.8h-9.8v-9.8h9.8m.1-.1H130v10h10V120Z"/><path class="cls-3" d="M149.88,120.08v9.8h-9.8v-9.8h9.8m.1-.1H140v10h10V120Z"/><path class="cls-3" d="M159.88,120.08v9.8h-9.8v-9.8h9.8m.1-.1H150v10h10V120Z"/><path class="cls-3" d="M169.88,120.08v9.8h-9.8v-9.8h9.8m.1-.1H160v10h10V120Z"/><path class="cls-3" d="M179.88,120.08v9.8h-9.8v-9.8h9.8m.1-.1H170v10h10V120Z"/><path class="cls-3" d="M189.88,120.08v9.8h-9.8v-9.8h9.8m.1-.1H180v10h10V120Z"/><path class="cls-3" d="M199.88,120.08v9.8h-9.8v-9.8h9.8m.1-.1H190v10h10V120Z"/><path class="cls-3" d="M209.88,120.08v9.8h-9.8v-9.8h9.8m.1-.1H200v10h10V120Z"/><path class="cls-3" d="M9.88,130.08v9.8H.08v-9.8h9.8m.1-.1H0v10H10V130Z"/><path class="cls-3" d="M19.88,130.08v9.8h-9.8v-9.8h9.8m.1-.1H10v10H20V130Z"/><path class="cls-3" d="M29.88,130.08v9.8h-9.8v-9.8h9.8m.1-.1H20v10H30V130Z"/><path class="cls-3" d="M39.88,130.08v9.8h-9.8v-9.8h9.8m.1-.1H30v10H40V130Z"/><path class="cls-3" d="M49.88,130.08v9.8h-9.8v-9.8h9.8m.1-.1H40v10H50V130Z"/><path class="cls-3" d="M59.88,130.08v9.8h-9.8v-9.8h9.8m.1-.1H50v10H60V130Z"/><path class="cls-3" d="M69.88,130.08v9.8h-9.8v-9.8h9.8m.1-.1H60v10H70V130Z"/><path class="cls-3" d="M79.88,130.08v9.8h-9.8v-9.8h9.8m.1-.1H70v10H80V130Z"/><path class="cls-3" d="M89.88,130.08v9.8h-9.8v-9.8h9.8m.1-.1H80v10H90V130Z"/><path class="cls-3" d="M99.88,130.08v9.8h-9.8v-9.8h9.8m.1-.1H90v10h10V130Z"/><path class="cls-3" d="M109.88,130.08v9.8h-9.8v-9.8h9.8m.1-.1H100v10h10V130Z"/><path class="cls-3" d="M119.88,130.08v9.8h-9.8v-9.8h9.8m.1-.1H110v10h10V130Z"/><path class="cls-3" d="M129.88,130.08v9.8h-9.8v-9.8h9.8m.1-.1H120v10h10V130Z"/><path class="cls-3" d="M139.88,130.08v9.8h-9.8v-9.8h9.8m.1-.1H130v10h10V130Z"/><path class="cls-3" d="M149.88,130.08v9.8h-9.8v-9.8h9.8m.1-.1H140v10h10V130Z"/><path class="cls-3" d="M159.88,130.08v9.8h-9.8v-9.8h9.8m.1-.1H150v10h10V130Z"/><path class="cls-3" d="M169.88,130.08v9.8h-9.8v-9.8h9.8m.1-.1H160v10h10V130Z"/><path class="cls-3" d="M179.88,130.08v9.8h-9.8v-9.8h9.8m.1-.1H170v10h10V130Z"/><path class="cls-3" d="M189.88,130.08v9.8h-9.8v-9.8h9.8m.1-.1H180v10h10V130Z"/><path class="cls-3" d="M199.88,130.08v9.8h-9.8v-9.8h9.8m.1-.1H190v10h10V130Z"/><path class="cls-3" d="M209.88,130.08v9.8h-9.8v-9.8h9.8m.1-.1H200v10h10V130Z"/><path class="cls-3" d="M9.88,140.08v9.8H.08v-9.8h9.8m.1-.1H0v10H10V140Z"/><path class="cls-3" d="M19.88,140.08v9.8h-9.8v-9.8h9.8m.1-.1H10v10H20V140Z"/><path class="cls-3" d="M29.88,140.08v9.8h-9.8v-9.8h9.8m.1-.1H20v10H30V140Z"/><path class="cls-3" d="M39.88,140.08v9.8h-9.8v-9.8h9.8m.1-.1H30v10H40V140Z"/><path class="cls-3" d="M49.88,140.08v9.8h-9.8v-9.8h9.8m.1-.1H40v10H50V140Z"/><path class="cls-3" d="M59.88,140.08v9.8h-9.8v-9.8h9.8m.1-.1H50v10H60V140Z"/><path class="cls-3" d="M69.88,140.08v9.8h-9.8v-9.8h9.8m.1-.1H60v10H70V140Z"/><path class="cls-3" d="M79.88,140.08v9.8h-9.8v-9.8h9.8m.1-.1H70v10H80V140Z"/><path class="cls-3" d="M89.88,140.08v9.8h-9.8v-9.8h9.8m.1-.1H80v10H90V140Z"/><path class="cls-3" d="M99.88,140.08v9.8h-9.8v-9.8h9.8m.1-.1H90v10h10V140Z"/><path class="cls-3" d="M109.88,140.08v9.8h-9.8v-9.8h9.8m.1-.1H100v10h10V140Z"/><path class="cls-3" d="M119.88,140.08v9.8h-9.8v-9.8h9.8m.1-.1H110v10h10V140Z"/><path class="cls-3" d="M129.88,140.08v9.8h-9.8v-9.8h9.8m.1-.1H120v10h10V140Z"/><path class="cls-3" d="M139.88,140.08v9.8h-9.8v-9.8h9.8m.1-.1H130v10h10V140Z"/><path class="cls-3" d="M149.88,140.08v9.8h-9.8v-9.8h9.8m.1-.1H140v10h10V140Z"/><path class="cls-3" d="M159.88,140.08v9.8h-9.8v-9.8h9.8m.1-.1H150v10h10V140Z"/><path class="cls-3" d="M169.88,140.08v9.8h-9.8v-9.8h9.8m.1-.1H160v10h10V140Z"/><path class="cls-3" d="M179.88,140.08v9.8h-9.8v-9.8h9.8m.1-.1H170v10h10V140Z"/><path class="cls-3" d="M189.88,140.08v9.8h-9.8v-9.8h9.8m.1-.1H180v10h10V140Z"/><path class="cls-3" d="M199.88,140.08v9.8h-9.8v-9.8h9.8m.1-.1H190v10h10V140Z"/><path class="cls-3" d="M209.88,140.08v9.8h-9.8v-9.8h9.8m.1-.1H200v10h10V140Z"/><path class="cls-3" d="M9.88,150.08v9.8H.08v-9.8h9.8m.1-.1H0v10H10V150Z"/><path class="cls-3" d="M19.88,150.08v9.8h-9.8v-9.8h9.8m.1-.1H10v10H20V150Z"/><path class="cls-3" d="M29.88,150.08v9.8h-9.8v-9.8h9.8m.1-.1H20v10H30V150Z"/><path class="cls-3" d="M39.88,150.08v9.8h-9.8v-9.8h9.8m.1-.1H30v10H40V150Z"/><path class="cls-3" d="M49.88,150.08v9.8h-9.8v-9.8h9.8m.1-.1H40v10H50V150Z"/><path class="cls-3" d="M59.88,150.08v9.8h-9.8v-9.8h9.8m.1-.1H50v10H60V150Z"/><path class="cls-3" d="M69.88,150.08v9.8h-9.8v-9.8h9.8m.1-.1H60v10H70V150Z"/><path class="cls-3" d="M79.88,150.08v9.8h-9.8v-9.8h9.8m.1-.1H70v10H80V150Z"/><path class="cls-3" d="M89.88,150.08v9.8h-9.8v-9.8h9.8m.1-.1H80v10H90V150Z"/><path class="cls-3" d="M99.88,150.08v9.8h-9.8v-9.8h9.8m.1-.1H90v10h10V150Z"/><path class="cls-3" d="M109.88,150.08v9.8h-9.8v-9.8h9.8m.1-.1H100v10h10V150Z"/><path class="cls-3" d="M119.88,150.08v9.8h-9.8v-9.8h9.8m.1-.1H110v10h10V150Z"/><path class="cls-3" d="M129.88,150.08v9.8h-9.8v-9.8h9.8m.1-.1H120v10h10V150Z"/><path class="cls-3" d="M139.88,150.08v9.8h-9.8v-9.8h9.8m.1-.1H130v10h10V150Z"/><path class="cls-3" d="M149.88,150.08v9.8h-9.8v-9.8h9.8m.1-.1H140v10h10V150Z"/><path class="cls-3" d="M159.88,150.08v9.8h-9.8v-9.8h9.8m.1-.1H150v10h10V150Z"/><path class="cls-3" d="M169.88,150.08v9.8h-9.8v-9.8h9.8m.1-.1H160v10h10V150Z"/><path class="cls-3" d="M179.88,150.08v9.8h-9.8v-9.8h9.8m.1-.1H170v10h10V150Z"/><path class="cls-3" d="M189.88,150.08v9.8h-9.8v-9.8h9.8m.1-.1H180v10h10V150Z"/><path class="cls-3" d="M199.88,150.08v9.8h-9.8v-9.8h9.8m.1-.1H190v10h10V150Z"/><path class="cls-3" d="M209.88,150.08v9.8h-9.8v-9.8h9.8m.1-.1H200v10h10V150Z"/><path class="cls-3" d="M9.88,160.08v9.8H.08v-9.8h9.8m.1-.1H0v10H10V160Z"/><path class="cls-3" d="M19.88,160.08v9.8h-9.8v-9.8h9.8m.1-.1H10v10H20V160Z"/><path class="cls-3" d="M29.88,160.08v9.8h-9.8v-9.8h9.8m.1-.1H20v10H30V160Z"/><path class="cls-3" d="M39.88,160.08v9.8h-9.8v-9.8h9.8m.1-.1H30v10H40V160Z"/><path class="cls-3" d="M49.88,160.08v9.8h-9.8v-9.8h9.8m.1-.1H40v10H50V160Z"/><path class="cls-3" d="M59.88,160.08v9.8h-9.8v-9.8h9.8m.1-.1H50v10H60V160Z"/><path class="cls-3" d="M69.88,160.08v9.8h-9.8v-9.8h9.8m.1-.1H60v10H70V160Z"/><path class="cls-3" d="M79.88,160.08v9.8h-9.8v-9.8h9.8m.1-.1H70v10H80V160Z"/><path class="cls-3" d="M89.88,160.08v9.8h-9.8v-9.8h9.8m.1-.1H80v10H90V160Z"/><path class="cls-3" d="M99.88,160.08v9.8h-9.8v-9.8h9.8m.1-.1H90v10h10V160Z"/><path class="cls-3" d="M109.88,160.08v9.8h-9.8v-9.8h9.8m.1-.1H100v10h10V160Z"/><path class="cls-3" d="M119.88,160.08v9.8h-9.8v-9.8h9.8m.1-.1H110v10h10V160Z"/><path class="cls-3" d="M129.88,160.08v9.8h-9.8v-9.8h9.8m.1-.1H120v10h10V160Z"/><path class="cls-3" d="M139.88,160.08v9.8h-9.8v-9.8h9.8m.1-.1H130v10h10V160Z"/><path class="cls-3" d="M149.88,160.08v9.8h-9.8v-9.8h9.8m.1-.1H140v10h10V160Z"/><path class="cls-3" d="M159.88,160.08v9.8h-9.8v-9.8h9.8m.1-.1H150v10h10V160Z"/><path class="cls-3" d="M169.88,160.08v9.8h-9.8v-9.8h9.8m.1-.1H160v10h10V160Z"/><path class="cls-3" d="M179.88,160.08v9.8h-9.8v-9.8h9.8m.1-.1H170v10h10V160Z"/><path class="cls-3" d="M189.88,160.08v9.8h-9.8v-9.8h9.8m.1-.1H180v10h10V160Z"/><path class="cls-3" d="M199.88,160.08v9.8h-9.8v-9.8h9.8m.1-.1H190v10h10V160Z"/><path class="cls-3" d="M209.88,160.08v9.8h-9.8v-9.8h9.8m.1-.1H200v10h10V160Z"/><path class="cls-3" d="M9.88,170.08v9.8H.08v-9.8h9.8m.1-.1H0v10H10V170Z"/><path class="cls-3" d="M19.88,170.08v9.8h-9.8v-9.8h9.8m.1-.1H10v10H20V170Z"/><path class="cls-3" d="M29.88,170.08v9.8h-9.8v-9.8h9.8m.1-.1H20v10H30V170Z"/><path class="cls-3" d="M39.88,170.08v9.8h-9.8v-9.8h9.8m.1-.1H30v10H40V170Z"/><path class="cls-3" d="M49.88,170.08v9.8h-9.8v-9.8h9.8m.1-.1H40v10H50V170Z"/><path class="cls-3" d="M59.88,170.08v9.8h-9.8v-9.8h9.8m.1-.1H50v10H60V170Z"/><path class="cls-3" d="M69.88,170.08v9.8h-9.8v-9.8h9.8m.1-.1H60v10H70V170Z"/><path class="cls-3" d="M79.88,170.08v9.8h-9.8v-9.8h9.8m.1-.1H70v10H80V170Z"/><path class="cls-3" d="M89.88,170.08v9.8h-9.8v-9.8h9.8m.1-.1H80v10H90V170Z"/><path class="cls-3" d="M99.88,170.08v9.8h-9.8v-9.8h9.8m.1-.1H90v10h10V170Z"/><path class="cls-3" d="M109.88,170.08v9.8h-9.8v-9.8h9.8m.1-.1H100v10h10V170Z"/><path class="cls-3" d="M119.88,170.08v9.8h-9.8v-9.8h9.8m.1-.1H110v10h10V170Z"/><path class="cls-3" d="M129.88,170.08v9.8h-9.8v-9.8h9.8m.1-.1H120v10h10V170Z"/><path class="cls-3" d="M139.88,170.08v9.8h-9.8v-9.8h9.8m.1-.1H130v10h10V170Z"/><path class="cls-3" d="M149.88,170.08v9.8h-9.8v-9.8h9.8m.1-.1H140v10h10V170Z"/><path class="cls-3" d="M159.88,170.08v9.8h-9.8v-9.8h9.8m.1-.1H150v10h10V170Z"/><path class="cls-3" d="M169.88,170.08v9.8h-9.8v-9.8h9.8m.1-.1H160v10h10V170Z"/><path class="cls-3" d="M179.88,170.08v9.8h-9.8v-9.8h9.8m.1-.1H170v10h10V170Z"/><path class="cls-3" d="M189.88,170.08v9.8h-9.8v-9.8h9.8m.1-.1H180v10h10V170Z"/><path class="cls-3" d="M199.88,170.08v9.8h-9.8v-9.8h9.8m.1-.1H190v10h10V170Z"/><path class="cls-3" d="M209.88,170.08v9.8h-9.8v-9.8h9.8m.1-.1H200v10h10V170Z"/><path class="cls-3" d="M9.88,180.08v9.8H.08v-9.8h9.8m.1-.1H0v10H10V180Z"/><path class="cls-3" d="M19.88,180.08v9.8h-9.8v-9.8h9.8m.1-.1H10v10H20V180Z"/><path class="cls-3" d="M29.88,180.08v9.8h-9.8v-9.8h9.8m.1-.1H20v10H30V180Z"/><path class="cls-3" d="M39.88,180.08v9.8h-9.8v-9.8h9.8m.1-.1H30v10H40V180Z"/><path class="cls-3" d="M49.88,180.08v9.8h-9.8v-9.8h9.8m.1-.1H40v10H50V180Z"/><path class="cls-3" d="M59.88,180.08v9.8h-9.8v-9.8h9.8m.1-.1H50v10H60V180Z"/><path class="cls-3" d="M69.88,180.08v9.8h-9.8v-9.8h9.8m.1-.1H60v10H70V180Z"/><path class="cls-3" d="M79.88,180.08v9.8h-9.8v-9.8h9.8m.1-.1H70v10H80V180Z"/><path class="cls-3" d="M89.88,180.08v9.8h-9.8v-9.8h9.8m.1-.1H80v10H90V180Z"/><path class="cls-3" d="M99.88,180.08v9.8h-9.8v-9.8h9.8m.1-.1H90v10h10V180Z"/><path class="cls-3" d="M109.88,180.08v9.8h-9.8v-9.8h9.8m.1-.1H100v10h10V180Z"/><path class="cls-3" d="M119.88,180.08v9.8h-9.8v-9.8h9.8m.1-.1H110v10h10V180Z"/><path class="cls-3" d="M129.88,180.08v9.8h-9.8v-9.8h9.8m.1-.1H120v10h10V180Z"/><path class="cls-3" d="M139.88,180.08v9.8h-9.8v-9.8h9.8m.1-.1H130v10h10V180Z"/><path class="cls-3" d="M149.88,180.08v9.8h-9.8v-9.8h9.8m.1-.1H140v10h10V180Z"/><path class="cls-3" d="M159.88,180.08v9.8h-9.8v-9.8h9.8m.1-.1H150v10h10V180Z"/><path class="cls-3" d="M169.88,180.08v9.8h-9.8v-9.8h9.8m.1-.1H160v10h10V180Z"/><path class="cls-3" d="M179.88,180.08v9.8h-9.8v-9.8h9.8m.1-.1H170v10h10V180Z"/><path class="cls-3" d="M189.88,180.08v9.8h-9.8v-9.8h9.8m.1-.1H180v10h10V180Z"/><path class="cls-3" d="M199.88,180.08v9.8h-9.8v-9.8h9.8m.1-.1H190v10h10V180Z"/><path class="cls-3" d="M209.88,180.08v9.8h-9.8v-9.8h9.8m.1-.1H200v10h10V180Z"/><path class="cls-3" d="M9.88,190.08v9.8H.08v-9.8h9.8m.1-.1H0v10H10V190Z"/><path class="cls-3" d="M19.88,190.08v9.8h-9.8v-9.8h9.8m.1-.1H10v10H20V190Z"/><path class="cls-3" d="M29.88,190.08v9.8h-9.8v-9.8h9.8m.1-.1H20v10H30V190Z"/><path class="cls-3" d="M39.88,190.08v9.8h-9.8v-9.8h9.8m.1-.1H30v10H40V190Z"/><path class="cls-3" d="M49.88,190.08v9.8h-9.8v-9.8h9.8m.1-.1H40v10H50V190Z"/><path class="cls-3" d="M59.88,190.08v9.8h-9.8v-9.8h9.8m.1-.1H50v10H60V190Z"/><path class="cls-3" d="M69.88,190.08v9.8h-9.8v-9.8h9.8m.1-.1H60v10H70V190Z"/><path class="cls-3" d="M79.88,190.08v9.8h-9.8v-9.8h9.8m.1-.1H70v10H80V190Z"/><path class="cls-3" d="M89.88,190.08v9.8h-9.8v-9.8h9.8m.1-.1H80v10H90V190Z"/><path class="cls-3" d="M99.88,190.08v9.8h-9.8v-9.8h9.8m.1-.1H90v10h10V190Z"/><path class="cls-3" d="M109.88,190.08v9.8h-9.8v-9.8h9.8m.1-.1H100v10h10V190Z"/><path class="cls-3" d="M119.88,190.08v9.8h-9.8v-9.8h9.8m.1-.1H110v10h10V190Z"/><path class="cls-3" d="M129.88,190.08v9.8h-9.8v-9.8h9.8m.1-.1H120v10h10V190Z"/><path class="cls-3" d="M139.88,190.08v9.8h-9.8v-9.8h9.8m.1-.1H130v10h10V190Z"/><path class="cls-3" d="M149.88,190.08v9.8h-9.8v-9.8h9.8m.1-.1H140v10h10V190Z"/><path class="cls-3" d="M159.88,190.08v9.8h-9.8v-9.8h9.8m.1-.1H150v10h10V190Z"/><path class="cls-3" d="M169.88,190.08v9.8h-9.8v-9.8h9.8m.1-.1H160v10h10V190Z"/><path class="cls-3" d="M179.88,190.08v9.8h-9.8v-9.8h9.8m.1-.1H170v10h10V190Z"/><path class="cls-3" d="M189.88,190.08v9.8h-9.8v-9.8h9.8m.1-.1H180v10h10V190Z"/><path class="cls-3" d="M199.88,190.08v9.8h-9.8v-9.8h9.8m.1-.1H190v10h10V190Z"/><path class="cls-3" d="M209.88,190.08v9.8h-9.8v-9.8h9.8m.1-.1H200v10h10V190Z"/><path class="cls-3" d="M9.88,200.08v9.8H.08v-9.8h9.8m.1-.1H0v10H10V200Z"/><path class="cls-3" d="M19.88,200.08v9.8h-9.8v-9.8h9.8m.1-.1H10v10H20V200Z"/><path class="cls-3" d="M29.88,200.08v9.8h-9.8v-9.8h9.8m.1-.1H20v10H30V200Z"/><path class="cls-3" d="M39.88,200.08v9.8h-9.8v-9.8h9.8m.1-.1H30v10H40V200Z"/><path class="cls-3" d="M49.88,200.08v9.8h-9.8v-9.8h9.8m.1-.1H40v10H50V200Z"/><path class="cls-3" d="M59.88,200.08v9.8h-9.8v-9.8h9.8m.1-.1H50v10H60V200Z"/><path class="cls-3" d="M69.88,200.08v9.8h-9.8v-9.8h9.8m.1-.1H60v10H70V200Z"/><path class="cls-3" d="M79.88,200.08v9.8h-9.8v-9.8h9.8m.1-.1H70v10H80V200Z"/><path class="cls-3" d="M89.88,200.08v9.8h-9.8v-9.8h9.8m.1-.1H80v10H90V200Z"/><path class="cls-3" d="M99.88,200.08v9.8h-9.8v-9.8h9.8m.1-.1H90v10h10V200Z"/><path class="cls-3" d="M109.88,200.08v9.8h-9.8v-9.8h9.8m.1-.1H100v10h10V200Z"/><path class="cls-3" d="M119.88,200.08v9.8h-9.8v-9.8h9.8m.1-.1H110v10h10V200Z"/><path class="cls-3" d="M129.88,200.08v9.8h-9.8v-9.8h9.8m.1-.1H120v10h10V200Z"/><path class="cls-3" d="M139.88,200.08v9.8h-9.8v-9.8h9.8m.1-.1H130v10h10V200Z"/><path class="cls-3" d="M149.88,200.08v9.8h-9.8v-9.8h9.8m.1-.1H140v10h10V200Z"/><path class="cls-3" d="M159.88,200.08v9.8h-9.8v-9.8h9.8m.1-.1H150v10h10V200Z"/><path class="cls-3" d="M169.88,200.08v9.8h-9.8v-9.8h9.8m.1-.1H160v10h10V200Z"/><path class="cls-3" d="M179.88,200.08v9.8h-9.8v-9.8h9.8m.1-.1H170v10h10V200Z"/><path class="cls-3" d="M189.88,200.08v9.8h-9.8v-9.8h9.8m.1-.1H180v10h10V200Z"/><path class="cls-3" d="M199.88,200.08v9.8h-9.8v-9.8h9.8m.1-.1H190v10h10V200Z"/><path class="cls-3" d="M209.88,200.08v9.8h-9.8v-9.8h9.8m.1-.1H200v10h10V200Z"/></g></svg>