<?xml version="1.0" encoding="utf-8"?>
<!-- Generator: Adobe Illustrator 25.1.0, SVG Export Plug-In . SVG Version: 6.00 Build 0)  -->
<svg version="1.1" id="Layer_1" xmlns="http://www.w3.org/2000/svg" xmlns:xlink="http://www.w3.org/1999/xlink" x="0px" y="0px"
	 viewBox="0 0 48 48" style="enable-background:new 0 0 48 48;" xml:space="preserve">
<style type="text/css">
	.st0{fill:#FFDD33;}
	.st1{fill-rule:evenodd;clip-rule:evenodd;fill:#1C1C1E;}
</style>
<g>
	<path class="st0" d="M5.9,9.9c0-2.2,1.8-4,4-4h28.3c2.2,0,4,1.8,4,4v28.3c0,2.2-1.8,4-4,4H9.9c-2.2,0-4-1.8-4-4V9.9z"/>
	<path class="st1" d="M30,12.8h-3.3l2.7,4.8l-6-4.8h-3.3l3,5.9l-6.3-5.9h-3.3l3.3,7.5l-3.3,15h3.3l6.3-16l-3,16h3.3l6-17.1
		l-2.7,17.1H30l6-18.7L30,12.8L30,12.8z"/>
</g>
</svg>
