<?xml version="1.0" encoding="utf-8"?>
<!-- Generator: Adobe Illustrator 25.1.0, SVG Export Plug-In . SVG Version: 6.00 Build 0)  -->
<svg version="1.1" xmlns="http://www.w3.org/2000/svg" xmlns:xlink="http://www.w3.org/1999/xlink" x="0px" y="0px"
	 viewBox="0 0 67.9 37.7" style="enable-background:new 0 0 67.9 37.7;" xml:space="preserve">
<style type="text/css">
	.st0{display:none;}
	.st1{display:inline;}
	.st2{fill:#B22435;}
	.st3{fill:#010101;}
	.st4{fill:#FFFFFF;}
	.st5{fill:#3D3C6F;}
</style>
<g id="Layer_1" class="st0">
	<g class="st1">
		<rect x="0" class="st2" width="67.9" height="38"/>
		<g>
			<path class="st3" d="M0,4.4h67.9 M67.9,10.2H0 M0,16.1h67.9 M67.9,21.9H0 M0,27.7h67.9 M67.9,33.6H0"/>
			<path class="st4" d="M67.9,35H0v-2.9h67.9V35z M67.9,29.2H0v-2.9h67.9V29.2z M67.9,23.4H0v-2.9h67.9V23.4z M67.9,17.5H0v-2.9
				h67.9V17.5z M67.9,11.7H0V8.8h67.9V11.7z M67.9,5.8H0V2.9h67.9V5.8z"/>
		</g>
		<rect x="0" class="st5" width="28.8" height="20.4"/>
		<g>
			<g id="s18">
				<g id="s9">
					<g id="s5">
						<g id="s4">
							<path id="s" class="st4" d="M2.4,0.9L3.1,3L1.3,1.7h2.2L1.7,3L2.4,0.9z"/>
							<g>
								<path id="s_1_" class="st4" d="M2.4,5l0.7,2.1L1.3,5.8h2.2L1.7,7.1L2.4,5z"/>
							</g>
							<g>
								<path id="s_2_" class="st4" d="M2.4,9.1l0.7,2.1L1.3,9.9h2.2l-1.8,1.3L2.4,9.1z"/>
							</g>
							<g>
								<path id="s_3_" class="st4" d="M2.4,13.1l0.7,2.1l-1.8-1.3h2.2l-1.8,1.3L2.4,13.1z"/>
							</g>
						</g>
						<g>
							<path id="s_4_" class="st4" d="M2.4,17.2l0.7,2.1L1.3,18h2.2l-1.8,1.3L2.4,17.2z"/>
						</g>
					</g>
					<g>
						<g id="s4_1_">
							<path id="s_5_" class="st4" d="M4.8,2.9L5.5,5L3.7,3.7h2.2L4.1,5L4.8,2.9z"/>
							<g>
								<path id="s_6_" class="st4" d="M4.8,7l0.7,2.1L3.7,7.8h2.2L4.1,9.1L4.8,7z"/>
							</g>
							<g>
								<path id="s_7_" class="st4" d="M4.8,11.1l0.7,2.1l-1.8-1.3h2.2l-1.8,1.3L4.8,11.1z"/>
							</g>
							<g>
								<path id="s_8_" class="st4" d="M4.8,15.2l0.7,2.1L3.7,16h2.2l-1.8,1.3L4.8,15.2z"/>
							</g>
						</g>
					</g>
				</g>
				<g>
					<g id="s9_1_">
						<g id="s5_1_">
							<g id="s4_2_">
								<path id="s_9_" class="st4" d="M7.2,0.9L7.9,3L6.1,1.7h2.2L6.5,3L7.2,0.9z"/>
								<g>
									<path id="s_10_" class="st4" d="M7.2,5l0.7,2.1L6.1,5.8h2.2L6.5,7.1L7.2,5z"/>
								</g>
								<g>
									<path id="s_11_" class="st4" d="M7.2,9.1l0.7,2.1L6.1,9.9h2.2l-1.8,1.3L7.2,9.1z"/>
								</g>
								<g>
									<path id="s_12_" class="st4" d="M7.2,13.1l0.7,2.1l-1.8-1.3h2.2l-1.8,1.3L7.2,13.1z"/>
								</g>
							</g>
							<g>
								<path id="s_13_" class="st4" d="M7.2,17.2l0.7,2.1L6.1,18h2.2l-1.8,1.3L7.2,17.2z"/>
							</g>
						</g>
						<g>
							<g id="s4_3_">
								<path id="s_14_" class="st4" d="M9.6,2.9L10.3,5L8.5,3.7h2.2L8.9,5L9.6,2.9z"/>
								<g>
									<path id="s_15_" class="st4" d="M9.6,7l0.7,2.1L8.5,7.8h2.2L8.9,9.1L9.6,7z"/>
								</g>
								<g>
									<path id="s_16_" class="st4" d="M9.6,11.1l0.7,2.1l-1.8-1.3h2.2l-1.8,1.3L9.6,11.1z"/>
								</g>
								<g>
									<path id="s_17_" class="st4" d="M9.6,15.2l0.7,2.1L8.5,16h2.2l-1.8,1.3L9.6,15.2z"/>
								</g>
							</g>
						</g>
					</g>
				</g>
			</g>
			<g>
				<g id="s18_1_">
					<g id="s9_2_">
						<g id="s5_2_">
							<g id="s4_4_">
								<path id="s_18_" class="st4" d="M12,0.9L12.7,3l-1.8-1.3h2.2L11.3,3L12,0.9z"/>
								<g>
									<path id="s_19_" class="st4" d="M12,5l0.7,2.1l-1.8-1.3h2.2l-1.8,1.3L12,5z"/>
								</g>
								<g>
									<path id="s_20_" class="st4" d="M12,9.1l0.7,2.1l-1.8-1.3h2.2l-1.8,1.3L12,9.1z"/>
								</g>
								<g>
									<path id="s_21_" class="st4" d="M12,13.1l0.7,2.1l-1.8-1.3h2.2l-1.8,1.3L12,13.1z"/>
								</g>
							</g>
							<g>
								<path id="s_22_" class="st4" d="M12,17.2l0.7,2.1L10.9,18h2.2l-1.8,1.3L12,17.2z"/>
							</g>
						</g>
						<g>
							<g id="s4_5_">
								<path id="s_23_" class="st4" d="M14.4,2.9L15.1,5l-1.8-1.3h2.2L13.7,5L14.4,2.9z"/>
								<g>
									<path id="s_24_" class="st4" d="M14.4,7l0.7,2.1l-1.8-1.3h2.2l-1.8,1.3L14.4,7z"/>
								</g>
								<g>
									<path id="s_25_" class="st4" d="M14.4,11.1l0.7,2.1l-1.8-1.3h2.2l-1.8,1.3L14.4,11.1z"/>
								</g>
								<g>
									<path id="s_26_" class="st4" d="M14.4,15.2l0.7,2.1L13.3,16h2.2l-1.8,1.3L14.4,15.2z"/>
								</g>
							</g>
						</g>
					</g>
					<g>
						<g id="s9_3_">
							<g id="s5_3_">
								<g id="s4_6_">
									<path id="s_27_" class="st4" d="M16.8,0.9L17.5,3l-1.8-1.3h2.2L16.1,3L16.8,0.9z"/>
									<g>
										<path id="s_28_" class="st4" d="M16.8,5l0.7,2.1l-1.8-1.3h2.2l-1.8,1.3L16.8,5z"/>
									</g>
									<g>
										<path id="s_29_" class="st4" d="M16.8,9.1l0.7,2.1l-1.8-1.3h2.2l-1.8,1.3L16.8,9.1z"/>
									</g>
									<g>
										<path id="s_30_" class="st4" d="M16.8,13.1l0.7,2.1l-1.8-1.3h2.2l-1.8,1.3L16.8,13.1z"/>
									</g>
								</g>
								<g>
									<path id="s_31_" class="st4" d="M16.8,17.2l0.7,2.1L15.7,18h2.2l-1.8,1.3L16.8,17.2z"/>
								</g>
							</g>
							<g>
								<g id="s4_7_">
									<path id="s_32_" class="st4" d="M19.2,2.9L19.9,5l-1.8-1.3h2.2L18.5,5L19.2,2.9z"/>
									<g>
										<path id="s_33_" class="st4" d="M19.2,7l0.7,2.1l-1.8-1.3h2.2l-1.8,1.3L19.2,7z"/>
									</g>
									<g>
										<path id="s_34_" class="st4" d="M19.2,11.1l0.7,2.1l-1.8-1.3h2.2l-1.8,1.3L19.2,11.1z"/>
									</g>
									<g>
										<path id="s_35_" class="st4" d="M19.2,15.2l0.7,2.1L18.1,16h2.2l-1.8,1.3L19.2,15.2z"/>
									</g>
								</g>
							</g>
						</g>
					</g>
				</g>
			</g>
			<g>
				<g id="s9_4_">
					<g id="s5_4_">
						<g id="s4_8_">
							<path id="s_36_" class="st4" d="M21.6,0.9L22.3,3l-1.8-1.3h2.2L20.9,3L21.6,0.9z"/>
							<g>
								<path id="s_37_" class="st4" d="M21.6,5l0.7,2.1l-1.8-1.3h2.2l-1.8,1.3L21.6,5z"/>
							</g>
							<g>
								<path id="s_38_" class="st4" d="M21.6,9.1l0.7,2.1l-1.8-1.3h2.2l-1.8,1.3L21.6,9.1z"/>
							</g>
							<g>
								<path id="s_39_" class="st4" d="M21.6,13.1l0.7,2.1l-1.8-1.3h2.2l-1.8,1.3L21.6,13.1z"/>
							</g>
						</g>
						<g>
							<path id="s_40_" class="st4" d="M21.6,17.2l0.7,2.1L20.5,18h2.2l-1.8,1.3L21.6,17.2z"/>
						</g>
					</g>
					<g>
						<g id="s4_9_">
							<path id="s_41_" class="st4" d="M24,2.9L24.7,5l-1.8-1.3h2.2L23.4,5L24,2.9z"/>
							<g>
								<path id="s_42_" class="st4" d="M24,7l0.7,2.1l-1.8-1.3h2.2l-1.8,1.3L24,7z"/>
							</g>
							<g>
								<path id="s_43_" class="st4" d="M24,11.1l0.7,2.1l-1.8-1.3h2.2l-1.8,1.3L24,11.1z"/>
							</g>
							<g>
								<path id="s_44_" class="st4" d="M24,15.2l0.7,2.1L22.9,16h2.2l-1.8,1.3L24,15.2z"/>
							</g>
						</g>
					</g>
				</g>
			</g>
			<g>
				<g id="s5_5_">
					<g id="s4_10_">
						<path id="s_45_" class="st4" d="M26.4,0.9L27.1,3l-1.8-1.3h2.2L25.8,3L26.4,0.9z"/>
						<g>
							<path id="s_46_" class="st4" d="M26.4,5l0.7,2.1l-1.8-1.3h2.2l-1.8,1.3L26.4,5z"/>
						</g>
						<g>
							<path id="s_47_" class="st4" d="M26.4,9.1l0.7,2.1l-1.8-1.3h2.2l-1.8,1.3L26.4,9.1z"/>
						</g>
						<g>
							<path id="s_48_" class="st4" d="M26.4,13.1l0.7,2.1l-1.8-1.3h2.2l-1.8,1.3L26.4,13.1z"/>
						</g>
					</g>
					<g>
						<path id="s_49_" class="st4" d="M26.4,17.2l0.7,2.1L25.3,18h2.2l-1.8,1.3L26.4,17.2z"/>
					</g>
				</g>
			</g>
		</g>
	</g>
</g>
<g id="Layer_2">
	<rect y="18.8" class="st2" width="67.9" height="18.8"/>
	<g>
		<path class="st2" d="M67.4,0.5v36.7H0.5V0.5H67.4 M67.9,0H0v37.7h67.9V0L67.9,0z"/>
	</g>
</g>
</svg>
